<svg width="16" height="16" fill="none" xmlns="http://www.w3.org/2000/svg"><path d="M8 16a7.948 7.948 0 01-5.657-2.343A7.948 7.948 0 010 8c0-2.137.832-4.146 2.343-5.657A7.948 7.948 0 018 0c2.137 0 4.146.832 5.657 2.343A7.948 7.948 0 0116 8a7.948 7.948 0 01-2.343 5.657A7.948 7.948 0 018 16zM8 1.25A6.758 6.758 0 001.25 8 6.758 6.758 0 008 14.75 6.758 6.758 0 0014.75 8 6.758 6.758 0 008 1.25zm3.293 10.043l-.884-.884a3.41 3.41 0 01-4.818 0 3.41 3.41 0 010-4.818 3.41 3.41 0 014.818 0l.883-.883a4.662 4.662 0 00-6.584 0 4.662 4.662 0 000 6.585A4.642 4.642 0 008 12.654a4.642 4.642 0 003.293-1.361z" fill="#fff"/></svg>